<?xml version="1.0" encoding="UTF-8" standalone="no"?>
<!-- Created with Inkscape (http://www.inkscape.org/) -->

<svg
   width="297mm"
   height="210mm"
   viewBox="0 0 1052.3622 744.09448"
   id="svg4268"
   version="1.1"
   inkscape:version="1.3 (0e150ed, 2023-07-21)"
   sodipodi:docname="mind.svg"
   xmlns:inkscape="http://www.inkscape.org/namespaces/inkscape"
   xmlns:sodipodi="http://sodipodi.sourceforge.net/DTD/sodipodi-0.dtd"
   xmlns="http://www.w3.org/2000/svg"
   xmlns:svg="http://www.w3.org/2000/svg"
   xmlns:rdf="http://www.w3.org/1999/02/22-rdf-syntax-ns#"
   xmlns:cc="http://creativecommons.org/ns#"
   xmlns:dc="http://purl.org/dc/elements/1.1/">
  <defs
     id="defs4270" />
  <sodipodi:namedview
     id="base"
     pagecolor="#ffffff"
     bordercolor="#666666"
     borderopacity="1.0"
     inkscape:pageopacity="0.0"
     inkscape:pageshadow="2"
     inkscape:zoom="0.39860745"
     inkscape:cx="632.20093"
     inkscape:cy="130.45416"
     inkscape:document-units="px"
     inkscape:current-layer="layer1"
     showgrid="false"
     inkscape:snap-page="true"
     inkscape:window-width="1312"
     inkscape:window-height="517"
     inkscape:window-x="0"
     inkscape:window-y="0"
     inkscape:window-maximized="0"
     inkscape:showpageshadow="2"
     inkscape:pagecheckerboard="0"
     inkscape:deskcolor="#d1d1d1" />
  <metadata
     id="metadata4273">
    <rdf:RDF>
      <cc:Work
         rdf:about="">
        <dc:format>image/svg+xml</dc:format>
        <dc:type
           rdf:resource="http://purl.org/dc/dcmitype/StillImage" />
        <dc:title />
      </cc:Work>
    </rdf:RDF>
  </metadata>
  <g
     inkscape:label="Layer 1"
     inkscape:groupmode="layer"
     id="layer1"
     transform="translate(0,-308.26772)">
    <rect
       style="color:#000000;clip-rule:nonzero;display:inline;overflow:visible;visibility:visible;opacity:1;isolation:auto;mix-blend-mode:normal;color-interpolation:sRGB;color-interpolation-filters:linearRGB;solid-color:#000000;solid-opacity:1;fill:#f4eed7;fill-opacity:1;fill-rule:nonzero;stroke:none;stroke-width:2;stroke-linecap:round;stroke-linejoin:round;stroke-miterlimit:4;stroke-dasharray:none;stroke-dashoffset:0;stroke-opacity:1;color-rendering:auto;image-rendering:auto;shape-rendering:auto;text-rendering:auto;enable-background:accumulate"
       id="rect4290"
       width="1052.3622"
       height="744.09448"
       x="0"
       y="308.2677" />
    <path
       style="fill:#4d4d4d"
       d="m 0,308.26772 c 91.60439,0 183.20878,0 274.81317,0 -6.92132,30.8872 1.39191,62.06688 14.32827,90.11752 2.47603,12.87167 13.5064,27.7733 19.9128,40.11013 10.31366,23.8535 24.46738,46.29009 33.8406,70.04498 12.68473,30.60397 27.98341,59.09115 31.90163,91.32492 2.67667,33.24259 -36.44328,40.80667 -59.89181,51.19118 -24.55472,9.06685 -23.99003,43.39969 -15.88473,62.86419 18.13188,28.23684 -42.9725,34.8269 -21.75819,54.40556 17.77349,28.09435 -7.15677,54.42786 -27.69892,71.66923 -19.73402,25.19055 -8.93594,56.52559 4.44882,80.8873 12.19413,33.78291 -0.5033,73.48378 -29.45632,94.57787 -43.7613,31.0578 -99.89418,20.8426 -150.140327,23.6873 C 49.462899,1040.7696 21.447775,1036.2987 0,1051.9913 0,804.08344 0,556.17558 0,308.26772 Z"
       id="path4287"
       inkscape:connector-curvature="0" />
    <g
       id="g4443">
      <path
         inkscape:connector-curvature="0"
         id="path4311"
         d="M 123.07504,335.75939 A 93.857562,67.896966 0 0 0 37.775077,375.49612 93.857562,67.896966 0 0 0 123.07504,415.26804 93.857562,67.896966 0 0 0 208.375,375.53131 93.857562,67.896966 0 0 0 123.07504,335.75939 Z"
         style="color:#000000;clip-rule:nonzero;display:inline;overflow:visible;visibility:visible;opacity:1;isolation:auto;mix-blend-mode:normal;color-interpolation:sRGB;color-interpolation-filters:linearRGB;solid-color:#000000;solid-opacity:1;fill:#ffcc00;fill-opacity:1;fill-rule:nonzero;stroke:none;stroke-width:2;stroke-linecap:round;stroke-linejoin:round;stroke-miterlimit:4;stroke-dasharray:none;stroke-dashoffset:0;stroke-opacity:1;color-rendering:auto;image-rendering:auto;shape-rendering:auto;text-rendering:auto;enable-background:accumulate" />
      <circle
         r="28.304571"
         cy="375.5137"
         cx="123.07504"
         id="path4316"
         style="color:#000000;clip-rule:nonzero;display:inline;overflow:visible;visibility:visible;opacity:1;isolation:auto;mix-blend-mode:normal;color-interpolation:sRGB;color-interpolation-filters:linearRGB;solid-color:#000000;solid-opacity:1;fill:#000000;fill-opacity:1;fill-rule:nonzero;stroke:none;stroke-width:2;stroke-linecap:round;stroke-linejoin:round;stroke-miterlimit:4;stroke-dasharray:none;stroke-dashoffset:0;stroke-opacity:1;color-rendering:auto;image-rendering:auto;shape-rendering:auto;text-rendering:auto;enable-background:accumulate" />
    </g>
    <path
       inkscape:connector-curvature="0"
       id="path4433"
       d="m 1052.3622,308.26772 c -91.60441,0 -183.2088,0 -274.81319,0 6.92132,30.8872 -1.39191,62.06688 -14.32827,90.11752 -2.47603,12.87167 -13.5064,27.7733 -19.9128,40.11013 -10.31366,23.8535 -24.46738,46.29009 -33.8406,70.04498 -12.68473,30.60397 -27.98341,59.09115 -31.90163,91.32492 -2.67667,33.24259 36.44328,40.80667 59.89181,51.19118 24.55472,9.06685 23.99003,43.39969 15.88473,62.86419 -18.13188,28.23684 42.9725,34.8269 21.75819,54.40556 -17.77349,28.09435 7.15677,54.42786 27.69892,71.66923 19.73402,25.19055 8.93594,56.52559 -4.44882,80.8873 -12.19413,33.78291 0.5033,73.48378 29.45632,94.57787 43.7613,31.0578 99.89418,20.8426 150.14033,23.6873 24.95211,1.6217 52.96721,-2.8492 74.41501,12.8434 0,-247.90786 0,-495.81572 0,-743.72358 z"
       style="fill:#4d4d4d" />
    <g
       id="g4439">
      <path
         style="color:#000000;clip-rule:nonzero;display:inline;overflow:visible;visibility:visible;opacity:1;isolation:auto;mix-blend-mode:normal;color-interpolation:sRGB;color-interpolation-filters:linearRGB;solid-color:#000000;solid-opacity:1;fill:#ffcc00;fill-opacity:1;fill-rule:nonzero;stroke:none;stroke-width:2;stroke-linecap:round;stroke-linejoin:round;stroke-miterlimit:4;stroke-dasharray:none;stroke-dashoffset:0;stroke-opacity:1;color-rendering:auto;image-rendering:auto;shape-rendering:auto;text-rendering:auto;enable-background:accumulate"
         d="m 923.07504,335.75939 a 93.857562,67.896966 0 0 0 -85.29996,39.73673 93.857562,67.896966 0 0 0 85.29996,39.77192 93.857562,67.896966 0 0 0 85.29996,-39.73673 93.857562,67.896966 0 0 0 -85.29996,-39.77192 z"
         id="path4435"
         inkscape:connector-curvature="0" />
      <circle
         style="color:#000000;clip-rule:nonzero;display:inline;overflow:visible;visibility:visible;opacity:1;isolation:auto;mix-blend-mode:normal;color-interpolation:sRGB;color-interpolation-filters:linearRGB;solid-color:#000000;solid-opacity:1;fill:#000000;fill-opacity:1;fill-rule:nonzero;stroke:none;stroke-width:2;stroke-linecap:round;stroke-linejoin:round;stroke-miterlimit:4;stroke-dasharray:none;stroke-dashoffset:0;stroke-opacity:1;color-rendering:auto;image-rendering:auto;shape-rendering:auto;text-rendering:auto;enable-background:accumulate"
         id="circle4437"
         cx="923.07507"
         cy="375.5137"
         r="28.304571" />
    </g>
  </g>
</svg>
